<?xml version="1.0" standalone="no"?>
<!DOCTYPE svg PUBLIC "-//W3C//DTD SVG 20010904//EN"
 "http://www.w3.org/TR/2001/REC-SVG-20010904/DTD/svg10.dtd">
<svg version="1.0" xmlns="http://www.w3.org/2000/svg"
 width="700.000000pt" height="700.000000pt" viewBox="0 0 700.000000 700.000000"
 preserveAspectRatio="xMidYMid meet">
<metadata>
Created by potrace 1.14, written by Peter Selinger 2001-2017
</metadata>
<g transform="translate(0.000000,700.000000) scale(0.100000,-0.100000)"
fill="#000000" stroke="none">
<path d="M4055 5843 c-694 -59 -1378 -396 -1935 -953 -757 -756 -1109 -1763
-900 -2573 28 -112 89 -279 113 -311 12 -16 44 -13 412 39 421 59 542 85 690
145 373 152 678 481 805 869 44 136 60 238 70 445 6 105 19 242 30 305 121
678 634 1229 1305 1401 61 15 262 49 448 76 185 26 337 51 337 56 0 31 -187
190 -317 269 -290 176 -689 264 -1058 232z"/>
<path d="M5205 4936 c-445 -66 -545 -89 -703 -158 -279 -122 -546 -379 -689
-661 -49 -98 -109 -285 -126 -397 -9 -52 -18 -160 -22 -240 -8 -193 -38 -367
-90 -525 -191 -582 -661 -1021 -1252 -1170 -54 -13 -242 -45 -418 -71 -176
-25 -322 -48 -325 -51 -10 -10 159 -161 245 -219 496 -331 1190 -362 1895 -87
281 110 621 310 875 514 981 789 1464 2025 1148 2933 -46 133 -79 196 -101
195 -9 -1 -206 -29 -437 -63z"/>
</g>
</svg>
